<mxfile host="app.diagrams.net" modified="2022-11-20T21:10:33.743Z" agent="5.0 (X11; Linux x86_64) AppleWebKit/537.36 (KHTML, like Gecko) Chrome/107.0.0.0 Safari/537.36" etag="EXArc3Z82lEE3I2uqVIQ" version="20.5.3" type="github">
  <diagram id="R2lEEEUBdFMjLlhIrx00" name="Page-1">
    <mxGraphModel dx="576" dy="862" grid="1" gridSize="10" guides="1" tooltips="1" connect="1" arrows="1" fold="1" page="1" pageScale="1" pageWidth="1100" pageHeight="850" math="0" shadow="0" extFonts="Permanent Marker^https://fonts.googleapis.com/css?family=Permanent+Marker">
      <root>
        <mxCell id="0" />
        <mxCell id="1" parent="0" />
        <mxCell id="RHQRqbEKhS77Z5QPB1t--1" value="Lineas" style="whiteSpace=wrap;html=1;align=center;" vertex="1" parent="1">
          <mxGeometry x="560" y="285" width="100" height="40" as="geometry" />
        </mxCell>
        <mxCell id="RHQRqbEKhS77Z5QPB1t--2" value="Trenes&lt;br&gt;" style="whiteSpace=wrap;html=1;align=center;" vertex="1" parent="1">
          <mxGeometry x="200" y="285" width="100" height="40" as="geometry" />
        </mxCell>
        <mxCell id="RHQRqbEKhS77Z5QPB1t--5" value="Estaciones" style="shape=ext;margin=3;double=1;whiteSpace=wrap;html=1;align=center;" vertex="1" parent="1">
          <mxGeometry x="560" y="525" width="100" height="40" as="geometry" />
        </mxCell>
        <mxCell id="RHQRqbEKhS77Z5QPB1t--6" value="Ubicaciones" style="shape=ext;margin=3;double=1;whiteSpace=wrap;html=1;align=center;" vertex="1" parent="1">
          <mxGeometry x="850" y="525" width="100" height="40" as="geometry" />
        </mxCell>
        <mxCell id="RHQRqbEKhS77Z5QPB1t--12" value="" style="endArrow=none;html=1;rounded=0;entryX=0;entryY=0.5;entryDx=0;entryDy=0;exitX=1;exitY=0.5;exitDx=0;exitDy=0;" edge="1" parent="1" source="RHQRqbEKhS77Z5QPB1t--2" target="RHQRqbEKhS77Z5QPB1t--42">
          <mxGeometry relative="1" as="geometry">
            <mxPoint x="260" y="365" as="sourcePoint" />
            <mxPoint x="360" y="305" as="targetPoint" />
          </mxGeometry>
        </mxCell>
        <mxCell id="RHQRqbEKhS77Z5QPB1t--13" value="" style="endArrow=none;html=1;rounded=0;entryX=0;entryY=0.5;entryDx=0;entryDy=0;exitX=1;exitY=0.5;exitDx=0;exitDy=0;" edge="1" parent="1" source="RHQRqbEKhS77Z5QPB1t--42" target="RHQRqbEKhS77Z5QPB1t--1">
          <mxGeometry relative="1" as="geometry">
            <mxPoint x="480" y="305" as="sourcePoint" />
            <mxPoint x="520" y="375" as="targetPoint" />
          </mxGeometry>
        </mxCell>
        <mxCell id="RHQRqbEKhS77Z5QPB1t--15" value="" style="endArrow=none;html=1;rounded=0;entryX=0.5;entryY=1;entryDx=0;entryDy=0;exitX=0.5;exitY=0;exitDx=0;exitDy=0;" edge="1" parent="1" source="RHQRqbEKhS77Z5QPB1t--39" target="RHQRqbEKhS77Z5QPB1t--1">
          <mxGeometry relative="1" as="geometry">
            <mxPoint x="640" y="380" as="sourcePoint" />
            <mxPoint x="520" y="445" as="targetPoint" />
            <Array as="points" />
          </mxGeometry>
        </mxCell>
        <mxCell id="RHQRqbEKhS77Z5QPB1t--16" value="" style="endArrow=none;html=1;rounded=0;exitX=0.5;exitY=0;exitDx=0;exitDy=0;entryX=0.5;entryY=1;entryDx=0;entryDy=0;" edge="1" parent="1" source="RHQRqbEKhS77Z5QPB1t--5" target="RHQRqbEKhS77Z5QPB1t--39">
          <mxGeometry relative="1" as="geometry">
            <mxPoint x="380" y="485" as="sourcePoint" />
            <mxPoint x="610" y="455" as="targetPoint" />
          </mxGeometry>
        </mxCell>
        <mxCell id="RHQRqbEKhS77Z5QPB1t--34" value="Conductores" style="whiteSpace=wrap;html=1;align=center;" vertex="1" parent="1">
          <mxGeometry x="200" y="405" width="100" height="40" as="geometry" />
        </mxCell>
        <mxCell id="RHQRqbEKhS77Z5QPB1t--38" value="Está" style="shape=rhombus;perimeter=rhombusPerimeter;whiteSpace=wrap;html=1;align=center;" vertex="1" parent="1">
          <mxGeometry x="700" y="515" width="120" height="60" as="geometry" />
        </mxCell>
        <mxCell id="RHQRqbEKhS77Z5QPB1t--39" value="tiene" style="shape=rhombus;perimeter=rhombusPerimeter;whiteSpace=wrap;html=1;align=center;" vertex="1" parent="1">
          <mxGeometry x="550" y="395" width="120" height="60" as="geometry" />
        </mxCell>
        <mxCell id="RHQRqbEKhS77Z5QPB1t--40" value="" style="endArrow=none;html=1;rounded=0;exitX=1;exitY=0.5;exitDx=0;exitDy=0;entryX=0;entryY=0.5;entryDx=0;entryDy=0;" edge="1" parent="1" source="RHQRqbEKhS77Z5QPB1t--5" target="RHQRqbEKhS77Z5QPB1t--38">
          <mxGeometry relative="1" as="geometry">
            <mxPoint x="660" y="630" as="sourcePoint" />
            <mxPoint x="820" y="630" as="targetPoint" />
          </mxGeometry>
        </mxCell>
        <mxCell id="RHQRqbEKhS77Z5QPB1t--41" value="" style="endArrow=none;html=1;rounded=0;exitX=1;exitY=0.5;exitDx=0;exitDy=0;entryX=0;entryY=0.5;entryDx=0;entryDy=0;" edge="1" parent="1" source="RHQRqbEKhS77Z5QPB1t--38" target="RHQRqbEKhS77Z5QPB1t--6">
          <mxGeometry relative="1" as="geometry">
            <mxPoint x="800" y="620" as="sourcePoint" />
            <mxPoint x="960" y="620" as="targetPoint" />
          </mxGeometry>
        </mxCell>
        <mxCell id="RHQRqbEKhS77Z5QPB1t--42" value="Está" style="shape=rhombus;perimeter=rhombusPerimeter;whiteSpace=wrap;html=1;align=center;" vertex="1" parent="1">
          <mxGeometry x="360" y="275" width="120" height="60" as="geometry" />
        </mxCell>
        <mxCell id="RHQRqbEKhS77Z5QPB1t--43" value="N:1" style="text;strokeColor=none;fillColor=none;spacingLeft=4;spacingRight=4;overflow=hidden;rotatable=0;points=[[0,0.5],[1,0.5]];portConstraint=eastwest;fontSize=12;fontStyle=1" vertex="1" parent="1">
          <mxGeometry x="450" y="255" width="40" height="30" as="geometry" />
        </mxCell>
        <mxCell id="RHQRqbEKhS77Z5QPB1t--44" value="1:1" style="text;strokeColor=none;fillColor=none;spacingLeft=4;spacingRight=4;overflow=hidden;rotatable=0;points=[[0,0.5],[1,0.5]];portConstraint=eastwest;fontSize=12;fontStyle=1" vertex="1" parent="1">
          <mxGeometry x="790" y="495" width="40" height="30" as="geometry" />
        </mxCell>
        <mxCell id="RHQRqbEKhS77Z5QPB1t--45" value="N:N" style="text;strokeColor=none;fillColor=none;spacingLeft=4;spacingRight=4;overflow=hidden;rotatable=0;points=[[0,0.5],[1,0.5]];portConstraint=eastwest;fontSize=12;fontStyle=1" vertex="1" parent="1">
          <mxGeometry x="630" y="375" width="40" height="30" as="geometry" />
        </mxCell>
      </root>
    </mxGraphModel>
  </diagram>
</mxfile>
